<svg width="38" height="37" viewBox="0 0 38 37" fill="none" xmlns="http://www.w3.org/2000/svg">
<path d="M37.2731 25.1238L33.6417 23L20.5285 30.663C19.7573 31.1151 18.8097 31.1151 18.0384 30.663L4.92855 23L1.2938 25.1238C1.03329 25.2764 0.872559 25.56 0.872559 25.8672C0.872559 26.1744 1.03329 26.458 1.2938 26.6105L18.8651 36.8872C19.1223 37.0376 19.438 37.0376 19.6951 36.8872L37.2664 26.6105C37.5269 26.458 37.6877 26.1744 37.6877 25.8672C37.6877 25.56 37.5269 25.2764 37.2664 25.1238H37.2731Z" fill="#5454D4"/>
<path d="M37.2731 18.1238L33.6417 16L20.5285 23.663C19.7573 24.1151 18.8097 24.1151 18.0384 23.663L4.92855 16L1.2938 18.1238C1.03329 18.2764 0.872559 18.56 0.872559 18.8672C0.872559 19.1744 1.03329 19.458 1.2938 19.6105L18.8651 29.8872C19.1223 30.0376 19.438 30.0376 19.6951 29.8872L37.2664 19.6105C37.5269 19.458 37.6877 19.1744 37.6877 18.8672C37.6877 18.56 37.5269 18.2764 37.2664 18.1238H37.2731Z" fill="#D8D7E6"/>
<path d="M37.2664 10.2655L19.6951 0.111422C19.438 -0.0371407 19.1223 -0.0371407 18.8651 0.111422L1.2938 10.2655C1.03329 10.4162 0.872559 10.6965 0.872559 11C0.872559 11.3035 1.03329 11.5838 1.2938 11.7345L18.8651 21.8886C19.1223 22.0371 19.438 22.0371 19.6951 21.8886L37.2664 11.7345C37.5269 11.5838 37.6877 11.3035 37.6877 11C37.6877 10.6965 37.5269 10.4162 37.2664 10.2655Z" fill="#5454D4"/>
</svg>
