<svg width="37" height="36" viewBox="0 0 37 36" fill="none" xmlns="http://www.w3.org/2000/svg">
<path d="M2.53834 7.54839H15.8923V6H1.75281C1.31842 6 0.967285 6.34606 0.967285 6.77419V29.2258C0.967285 29.6539 1.31842 30 1.75281 30H4.1094V28.4516H2.53834V7.54839Z" fill="#D8D7E6"/>
<path fill-rule="evenodd" clip-rule="evenodd" d="M6.70728 22H15.1265C15.5498 22 15.8919 22.3477 15.8919 22.7778V35.2222C15.8919 35.6523 15.5498 36 15.1265 36H6.70728C6.28402 36 5.94189 35.6523 5.94189 35.2222V22.7778C5.94189 22.3477 6.28402 22 6.70728 22ZM9.7693 32.5C9.7693 33.144 10.2836 33.6666 10.9174 33.6666C11.5511 33.6666 12.0655 33.144 12.0655 32.5C12.0655 31.856 11.5511 31.3333 10.9174 31.3333C10.2836 31.3333 9.7693 31.856 9.7693 32.5Z" fill="#5454D4"/>
<path fill-rule="evenodd" clip-rule="evenodd" d="M18.4578 0H30.2407C31.1071 0 31.8118 0.693136 31.8118 1.54545V15.4545C31.8118 16.3069 31.1071 17 30.2407 17H18.4578C17.5913 17 16.8867 16.3069 16.8867 15.4545V1.54545C16.8867 0.693136 17.5913 0 18.4578 0ZM23.1715 13.5227C23.1715 14.1626 23.6994 14.6818 24.3498 14.6818C25.0002 14.6818 25.5281 14.1626 25.5281 13.5227C25.5281 12.8829 25.0002 12.3636 24.3498 12.3636C23.6994 12.3636 23.1715 12.8829 23.1715 13.5227Z" fill="#5454D4"/>
<path d="M35.9908 6H33.6028V7.55556H35.1948V28.5556H16.8867V34H24.8467C25.2861 34 25.6427 33.6516 25.6427 33.2222C25.6427 32.7929 25.2861 32.4444 24.8467 32.4444H21.6627V30.1111H35.9908C36.431 30.1111 36.7868 29.7634 36.7868 29.3333V6.77778C36.7868 6.34767 36.431 6 35.9908 6Z" fill="#D8D7E6"/>
</svg>
