<svg width="32" height="36" viewBox="0 0 32 36" fill="none" xmlns="http://www.w3.org/2000/svg">
<path d="M12.7194 20.7H1.51274C1.10033 20.7 0.765625 20.3433 0.765625 19.9038V0.796154C0.765625 0.356677 1.10033 0 1.51274 0H12.7194C13.1318 0 13.4665 0.356677 13.4665 0.796154V19.9038C13.4665 20.3433 13.1318 20.7 12.7194 20.7Z" fill="#5454D4"/>
<path d="M12.7194 36H1.51274C1.10033 36 0.765625 35.6256 0.765625 35.1643V25.1357C0.765625 24.6744 1.10033 24.3 1.51274 24.3H12.7194C13.1318 24.3 13.4665 24.6744 13.4665 25.1357V35.1643C13.4665 35.6256 13.1318 36 12.7194 36Z" fill="#D8D7E6"/>
<path d="M30.864 11.7H19.6573C19.2449 11.7 18.9102 11.3256 18.9102 10.8643V0.835714C18.9102 0.3744 19.2449 0 19.6573 0H30.864C31.2764 0 31.6111 0.3744 31.6111 0.835714V10.8643C31.6111 11.3256 31.2764 11.7 30.864 11.7Z" fill="#D8D7E6"/>
<path d="M30.864 36H19.6573C19.2449 36 18.9102 35.6433 18.9102 35.2038V16.0961C18.9102 15.6567 19.2449 15.3 19.6573 15.3H30.864C31.2764 15.3 31.6111 15.6567 31.6111 16.0961V35.2038C31.6111 35.6433 31.2764 36 30.864 36Z" fill="#5454D4"/>
</svg>
